<svg xmlns="http://www.w3.org/2000/svg" version="1.1" viewBox="-5.0 -10.0 110.0 135.0">
 <path d="m27.738 6.5469 1.5742 4.3711c1.75 4.8516 5.5703 8.6758 10.426 10.426l4.3711 1.5742c0.39453 0.14453 0.39453 0.69922 0 0.84375l-4.3711 1.5742c-4.8555 1.75-8.6758 5.5703-10.426 10.422l-1.5742 4.3711c-0.14453 0.39453-0.69922 0.39453-0.84375 0l-1.5742-4.3711c-1.75-4.8516-5.5742-8.6719-10.426-10.422l-4.3711-1.5742c-0.39453-0.14453-0.39453-0.69922 0-0.84375l4.3711-1.5742c4.8516-1.75 8.6758-5.5703 10.426-10.426l1.5742-4.3711c0.14453-0.39844 0.69922-0.39844 0.84375 0z"/>
 <path d="m36.883 59.867 1.5742 4.3711c1.75 4.8516 5.5703 8.6758 10.426 10.426l4.3711 1.5742c0.39453 0.14453 0.39453 0.69922 0 0.84375l-4.3711 1.5742c-4.8516 1.75-8.6758 5.5703-10.426 10.426l-1.5742 4.3711c-0.14453 0.39453-0.69922 0.39453-0.84375 0l-1.5742-4.3711c-1.75-4.8516-5.5703-8.6758-10.426-10.426l-4.3711-1.5742c-0.39453-0.14453-0.39453-0.69922 0-0.84375l4.3711-1.5742c4.8516-1.75 8.6758-5.5703 10.426-10.426l1.5742-4.3711c0.14063-0.39453 0.69922-0.39453 0.84375 0z"/>
 <path d="m70.492 24.551 1.8203 5.0586c2.0234 5.6172 6.4453 10.039 12.059 12.059l5.0586 1.8203c0.45703 0.16406 0.45703 0.8125 0 0.97656l-5.0586 1.8203c-5.6172 2.0234-10.039 6.4453-12.059 12.059l-1.8203 5.0586c-0.16406 0.45703-0.8125 0.45703-0.97656 0l-1.8203-5.0586c-2.0234-5.6172-6.4453-10.039-12.059-12.059l-5.0586-1.8203c-0.45703-0.16406-0.45703-0.8125 0-0.97656l5.0586-1.8203c5.6172-2.0234 10.039-6.4453 12.059-12.059l1.8203-5.0586c0.16406-0.45703 0.80859-0.45703 0.97656 0z"/>
 <path d="m62.492 10.75c0 4.168-6.25 4.168-6.25 0s6.25-4.168 6.25 0"/>
 <path d="m19.371 55.512c0 4.168-6.25 4.168-6.25 0 0-4.1641 6.25-4.1641 6.25 0"/>
 <path d="m78.852 80.691c0 4.1641-6.25 4.1641-6.25 0 0-4.168 6.25-4.168 6.25 0"/>
<text x="0.0" y="117.5" font-size="5.0" font-weight="bold" font-family="Arbeit Regular, Helvetica, Arial-Unicode, Arial, Sans-serif" fill="#000000">Created by Rikas Dzihab</text><text x="0.0" y="122.5" font-size="5.0" font-weight="bold" font-family="Arbeit Regular, Helvetica, Arial-Unicode, Arial, Sans-serif" fill="#000000">from Noun Project</text></svg>