<svg xmlns="http://www.w3.org/2000/svg" version="1.1" viewBox="-5.0 -10.0 110.0 135.0">
 <g>
  <path d="m50 41.664c-4.5781 0-8.332 3.7539-8.332 8.332s3.7539 8.332 8.332 8.332 8.332-3.7539 8.332-8.332-3.7539-8.332-8.332-8.332z"/>
  <path d="m50 8.332c-2.9688 0-5.7031 1.4492-7.9648 3.7227-2.2617 2.2734-4.1602 5.3906-5.7422 9.1484-0.41016 0.96875-0.79297 1.9883-1.1562 3.0391-2.5234-0.48438-4.9453-0.76563-7.2188-0.8125-6.4492-0.14063-11.625 1.6172-14.004 5.7383-1.4844 2.5703-1.5938 5.6641-0.75781 8.7617 0.83594 3.0938 2.5859 6.293 5.0508 9.543 0.64062 0.84375 1.332 1.6914 2.0664 2.5391-1.3125 1.5156-2.4805 3.043-3.4883 4.5664-0.68359-0.26562-1.4258-0.41016-2.2031-0.41016-3.4258 0-6.25 2.8242-6.25 6.25 0 2.7773 1.8516 5.1523 4.375 5.957 0.066407 1.5898 0.44531 3.0977 1.1914 4.4336 0.007812 0.007812 0.011718 0.015625 0.015624 0.023437 1.4844 2.5703 4.1094 4.2109 7.207 5.0352 3.0977 0.82422 6.7461 0.90625 10.793 0.39844 1.0469-0.13281 2.125-0.30469 3.2227-0.51562 0.36328 1.0547 0.75 2.0742 1.1602 3.0469 1.582 3.7578 3.4805 6.875 5.7422 9.1484 2.2578 2.2695 4.9922 3.7227 7.9609 3.7227s5.7031-1.4492 7.9648-3.7227c2.2617-2.2734 4.1602-5.3906 5.7422-9.1484 0.41016-0.97266 0.79297-1.9922 1.1602-3.0469 1.0977 0.21094 2.1797 0.38672 3.2266 0.51562 4.043 0.50781 7.6875 0.42578 10.785-0.39844 3.0977-0.82422 5.7227-2.4609 7.207-5.0352 0.003906-0.007812 0.007812-0.015625 0.011718-0.019531 0.003906-0.007812 0.003906-0.015625 0.007813-0.019531 3.1094-0.34766 5.5625-3.0156 5.5625-6.2109 0-3.4258-2.8242-6.25-6.25-6.25h-0.011719c-1.3203-2.7617-3.2422-5.5781-5.6484-8.3594 0.72656-0.83594 1.4023-1.6719 2.0352-2.5078 2.4609-3.2461 4.2109-6.4453 5.0508-9.543 0.83594-3.0938 0.72656-6.1875-0.75781-8.7617-2.3789-4.1211-7.5547-5.8789-14.004-5.7383-2.2734 0.050781-4.6914 0.32422-7.2109 0.80859-0.875-2.5195-1.8867-4.8281-3.0352-6.8711 0.42187-0.83203 0.66406-1.7773 0.66406-2.7773 0-3.4258-2.8242-6.25-6.25-6.25-1 0-1.9453 0.24219-2.7891 0.66797-1.1172-0.43359-2.2852-0.66797-3.4609-0.66797zm0 4.168c0.11719 0 0.23438 0.015625 0.35547 0.023438-0.23047 0.64844-0.35547 1.3398-0.35547 2.0586 0 3.4258 2.8242 6.25 6.25 6.25 0.86328 0 1.6836-0.18359 2.4336-0.50391 0.75 1.4609 1.4414 3.0898 2.0664 4.8672-3.4844 0.93359-7.1016 2.2266-10.75 3.8203-3.6562-1.5977-7.2852-2.8906-10.773-3.8242 0.29297-0.82422 0.59375-1.6172 0.91016-2.3711 1.4336-3.4062 3.1289-6.0859 4.8555-7.8203 1.7266-1.7344 3.375-2.5 5.0078-2.5zm-22.168 15.098c1.8711 0.039063 3.918 0.27734 6.0781 0.67969-0.92188 3.4453-1.6172 7.2266-2.0664 11.23-3.2227 2.375-6.1562 4.875-8.7109 7.4336-0.57031-0.66797-1.1094-1.3281-1.6055-1.9844-2.2344-2.9453-3.707-5.75-4.3477-8.1133-0.64063-2.3633-0.46875-4.1758 0.34766-5.5898 1.2891-2.2344 4.6562-3.7773 10.309-3.6523zm44.336 0h0.003906c5.6484-0.125 9.0117 1.418 10.301 3.6523 0.81641 1.4141 0.98438 3.2266 0.34766 5.5859-0.64062 2.3633-2.1172 5.1719-4.3516 8.1172-0.49219 0.64844-1.0234 1.3008-1.582 1.957-2.5547-2.5508-5.4844-5.0469-8.7148-7.418-0.44141-3.9648-1.1406-7.7383-2.0703-11.219 2.1562-0.40234 4.1992-0.64063 6.0664-0.67969zm-34.176 1.6055c2.2227 0.59375 4.5352 1.3477 6.8867 2.2422-1.4219 0.73047-2.8438 1.5-4.2539 2.3164-1.4102 0.8125-2.7891 1.6562-4.1289 2.5234 0.40234-2.5039 0.90234-4.875 1.4961-7.082zm24 0.003906c0.59766 2.2227 1.1133 4.5898 1.5117 7.082-1.3438-0.86328-2.7188-1.7109-4.1289-2.5273-1.4102-0.8125-2.8281-1.5859-4.2461-2.3164 2.3438-0.89453 4.6484-1.6445 6.8633-2.2383zm-11.992 4.3945c2.4336 1.1211 4.8789 2.375 7.293 3.7695 2.418 1.3945 4.7266 2.8867 6.9062 4.4336 0.25 2.6641 0.38672 5.4102 0.38672 8.1953 0 2.8164-0.13672 5.5586-0.37891 8.1992-2.168 1.5312-4.4727 3.0234-6.9141 4.4297-2.4414 1.4102-4.8828 2.6602-7.293 3.7734-2.4102-1.1133-4.8516-2.3672-7.293-3.7773-2.4414-1.4102-4.7461-2.8945-6.9141-4.4258-0.23828-2.6406-0.375-5.3828-0.375-8.1992 0-2.8125 0.13281-5.5469 0.375-8.1875 2.1875-1.5508 4.5-3.0469 6.918-4.4414 2.4102-1.3945 4.8555-2.6484 7.293-3.7695zm-18.621 11.559c-0.078125 1.5938-0.12891 3.1992-0.12891 4.8398 0 1.6445 0.050781 3.2539 0.12891 4.8477-1.9648-1.5977-3.7656-3.2188-5.3789-4.832 1.625-1.6289 3.4258-3.2578 5.3789-4.8516zm37.246 0.023438c1.9492 1.5938 3.7461 3.2188 5.3633 4.8438-1.6094 1.6133-3.4102 3.2227-5.3711 4.8164 0.082031-1.5898 0.13281-3.1992 0.13281-4.8438 0-1.6211-0.042969-3.2266-0.12109-4.8125zm-45.48 7.8984c2.5195 2.5195 5.4531 5.0039 8.6953 7.3945 0.44922 4.0156 1.1406 7.8047 2.0664 11.258-0.85938 0.16016-1.7031 0.29688-2.5195 0.39844-3.668 0.46094-6.8359 0.33594-9.1992-0.29297-2.3555-0.625-3.8398-1.6719-4.6602-3.082-0.39844-0.71484-0.62109-1.5547-0.66406-2.5391 2.3164-0.91797 3.9688-3.1797 3.9688-5.8008 0-1.1328-0.30859-2.1992-0.84766-3.1211 0.88672-1.375 1.9453-2.7852 3.1602-4.2109zm53.688 0.011719c1.9766 2.3047 3.5469 4.5625 4.6211 6.668-1.3906 1.1562-2.2852 2.8906-2.2852 4.8203 0 2.082 1.0469 3.9414 2.6328 5.0781-0.875 0.95703-2.1719 1.6992-3.9922 2.1797-2.3633 0.62891-5.5312 0.75391-9.1992 0.29297-0.81641-0.10156-1.6602-0.23828-2.5195-0.39844 0.92578-3.4531 1.6172-7.2422 2.0664-11.258 3.2344-2.3867 6.1602-4.8672 8.6797-7.3828zm-13.332 10.598c-0.40234 2.5117-0.90234 4.8906-1.4961 7.1016-2.2109-0.58984-4.5234-1.3438-6.8984-2.25 1.418-0.72656 2.8398-1.4844 4.2656-2.3086 1.4219-0.82031 2.7891-1.6758 4.1289-2.543zm-27.012 0.003906c1.3398 0.86328 2.707 1.7148 4.1289 2.5352 1.4258 0.82422 2.8477 1.582 4.2695 2.3125-2.375 0.90625-4.6875 1.6641-6.9023 2.2539-0.59766-2.2109-1.0938-4.5898-1.4961-7.1016zm13.512 7.2695c3.6992 1.6172 7.3281 2.9141 10.777 3.8359-0.29297 0.82422-0.59766 1.6211-0.91406 2.3789-1.4336 3.4062-3.1289 6.0859-4.8555 7.8203-1.7266 1.7344-3.375 2.5-5.0078 2.5s-3.2812-0.76562-5.0078-2.5c-1.7266-1.7344-3.418-4.4141-4.8555-7.8203-0.32031-0.75781-0.62109-1.5547-0.91406-2.3789 3.4531-0.92578 7.0781-2.2227 10.777-3.8359z"/>
 </g>
<text x="0.0" y="117.5" font-size="5.0" font-weight="bold" font-family="Arbeit Regular, Helvetica, Arial-Unicode, Arial, Sans-serif" fill="#000000">Created by Paonkz</text><text x="0.0" y="122.5" font-size="5.0" font-weight="bold" font-family="Arbeit Regular, Helvetica, Arial-Unicode, Arial, Sans-serif" fill="#000000">from Noun Project</text></svg>