<svg xmlns="http://www.w3.org/2000/svg" xmlns:xlink="http://www.w3.org/1999/xlink" version="1.1" x="0px" y="0px" viewBox="0 0 64 80" enable-background="new 0 0 64 64" xml:space="preserve"><g><path d="M61.8,20.3c1-0.8,1.6-2,1.6-3.3c0-2.4-1.9-4.3-4.3-4.3c-0.5,0-0.9,0.1-1.4,0.2C51.6,4.8,42.1,0,32,0C14.4,0,0,14.4,0,32   s14.4,32,32,32s32-14.4,32-32C64,28,63.2,24,61.8,20.3z M59,14.6c1.3,0,2.3,1.1,2.3,2.3c-0.2,2.1-2,2.3-2.3,2.3   c-1.3,0-2.3-1-2.3-2.3C56.7,15,58.6,14.6,59,14.6z M32,62C15.5,62,2,48.5,2,32S15.5,2,32,2c9.4,0,18.2,4.4,23.9,11.9c0,0,0,0,0,0   c-0.7,0.8-1.1,1.8-1.2,3c0,2.4,1.9,4.3,4.3,4.3c0.3,0,0.6,0,0.9-0.1c0,0,0,0,0,0c1.3,3.5,2,7.1,2,10.8C62,48.5,48.5,62,32,62z"/><path d="M32,10.2c-9.8,0-18.5,6.7-21,16.1c-2.2,0.2-4,2-4,4.3c0,2.1,1.5,3.8,3.4,4.2C11.9,45.7,21,53.8,32,53.8   c12,0,21.8-9.8,21.8-21.8C53.8,20,44,10.2,32,10.2z M9,30.7c0-1.3,1-2.3,2.3-2.3c1.1-0.2,2.3,1.2,2.3,2.3c0,1.3-1,2.3-2.4,2.3   C10.1,33,9,31.9,9,30.7z M32,51.8c-9.8,0-18.2-7.3-19.6-16.9c1.6-0.5,2.8-1.6,3.2-3.4c0.4-2.3-0.7-3.7-2.5-4.7   c-0.1,0-0.1-0.1-0.2-0.1c2.4-8.4,10.2-14.4,19-14.4c10.9,0,19.8,8.9,19.8,19.8C51.8,42.9,42.9,51.8,32,51.8z"/><path d="M32,21.9c-5.6,0-10.1,4.5-10.1,10.1S26.4,42.1,32,42.1c5.6,0,10.1-4.5,10.1-10.1S37.6,21.9,32,21.9z M32,40.1   c-4.5,0-8.1-3.6-8.1-8.1s3.6-8.1,8.1-8.1s8.1,3.6,8.1,8.1S36.5,40.1,32,40.1z"/></g><text x="0" y="79" fill="#000000" font-size="5px" font-weight="bold" font-family="'Helvetica Neue', Helvetica, Arial-Unicode, Arial, Sans-serif">Created by Creative Stall</text><text x="0" y="84" fill="#000000" font-size="5px" font-weight="bold" font-family="'Helvetica Neue', Helvetica, Arial-Unicode, Arial, Sans-serif">from the Noun Project</text></svg>